<?xml version="1.0" encoding="utf-8"?>
<!-- Svg Vector Icons : http://www.sfont.cn -->
<!DOCTYPE svg PUBLIC "-//W3C//DTD SVG 1.1//EN" "http://www.w3.org/Graphics/SVG/1.1/DTD/svg11.dtd">
<svg version="1.1" xmlns="http://www.w3.org/2000/svg" xmlns:xlink="http://www.w3.org/1999/xlink" x="0px" y="0px" viewBox="0 0 1000 1000" enable-background="new 0 0 1000 1000" xml:space="preserve">
<metadata> Svg Vector Icons : http://www.sfont.cn </metadata>
<g><path d="M414.4,865.6c-12.9,0-23.3-10.4-23.3-23.3v-490c0-12.9,10.4-23.3,23.3-23.3c12.9,0,23.3,10.4,23.3,23.3v490C437.8,855.1,427.3,865.6,414.4,865.6z"/><path d="M577.8,865.6c-12.9,0-23.3-10.4-23.3-23.3v-490c0-12.9,10.4-23.3,23.3-23.3c12.9,0,23.3,10.4,23.3,23.3v490C601.1,855.1,590.7,865.6,577.8,865.6z"/><path d="M640,56.7H360c-12.9,0-23.3-10.4-23.3-23.3S347.1,10,360,10h280c12.9,0,23.3,10.4,23.3,23.3S652.9,56.7,640,56.7z"/><path d="M943.3,196.7H56.7c-12.9,0-23.3-10.4-23.3-23.3S43.8,150,56.7,150h886.7c12.9,0,23.3,10.4,23.3,23.3S956.2,196.7,943.3,196.7z"/><path d="M786.8,990H222.5c-37.9,0-64.7-41.7-64.7-79V235.6c0-12.9,10.4-23.3,23.3-23.3s23.3,10.4,23.3,23.3V911c0,11.7,5.7,32.3,18,32.3h564.3c12.1,0,24.3-22.4,24.3-32.3V235.6c0-12.9,10.4-23.3,23.3-23.3c12.9,0,23.3,10.4,23.3,23.3V911C857.8,951.6,822.8,990,786.8,990z"/></g>
</svg>